<?xml version="1.0" standalone="no"?>
<!DOCTYPE svg PUBLIC "-//W3C//DTD SVG 20010904//EN"
 "http://www.w3.org/TR/2001/REC-SVG-20010904/DTD/svg10.dtd">
<svg version="1.0" xmlns="http://www.w3.org/2000/svg"
 width="88.000000pt" height="88.000000pt" viewBox="0 0 88.000000 88.000000"
 preserveAspectRatio="xMidYMid meet">
<metadata>
Created by potrace 1.14, written by Peter Selinger 2001-2017
</metadata>
<g transform="translate(0.000000,88.000000) scale(0.100000,-0.100000)"
fill="#000000" stroke="none">
<path d="M355 832 c-90 -37 -217 -84 -242 -89 -21 -5 -31 -39 -49 -163 -12
-86 -15 -105 -25 -144 -5 -23 -11 -54 -14 -71 -12 -86 -16 -108 -20 -115 -11
-18 34 -46 225 -136 l205 -96 55 17 c30 10 71 24 90 32 19 8 73 29 120 47 l85
31 12 48 c7 27 14 67 17 90 11 86 17 121 27 161 5 23 12 57 14 76 7 50 14 91
19 118 3 12 1 22 -5 22 -5 0 -11 0 -14 0 -2 1 -32 16 -66 35 -33 19 -63 35
-65 35 -3 0 -57 25 -122 56 -150 71 -154 73 -172 71 -8 0 -42 -12 -75 -25z
m50 -32 c3 -5 1 -10 -4 -10 -6 0 -11 5 -11 10 0 6 2 10 4 10 3 0 8 -4 11 -10z
m85 0 c0 -5 -7 -10 -15 -10 -8 0 -15 5 -15 10 0 6 7 10 15 10 8 0 15 -4 15
-10z m100 -56 c0 -8 -4 -12 -10 -9 -5 3 -10 13 -10 21 0 8 5 12 10 9 6 -3 10
-13 10 -21z m-200 -6 c16 5 15 4 -11 -16 -14 -11 -17 -9 -22 15 -4 23 -3 25 6
12 7 -9 19 -14 27 -11z m-152 -10 c-3 -13 -23 -38 -31 -38 -2 0 -2 11 1 25 2
14 11 25 18 25 8 0 13 -6 12 -12z m292 -3 c0 -9 -6 -12 -15 -9 -8 4 -12 10 -9
15 8 14 24 10 24 -6z m120 -11 c0 -17 -36 -19 -46 -2 -4 6 -3 8 3 5 6 -4 14 0
17 9 7 18 26 10 26 -12z m-356 1 c3 -9 0 -15 -9 -15 -16 0 -27 14 -18 24 10
10 21 7 27 -9z m279 -25 c-4 -5 -29 -11 -56 -15 -39 -6 -46 -5 -42 7 4 9 19
14 41 13 20 0 38 3 40 7 3 5 10 5 16 2 5 -3 6 -10 1 -14z m128 10 c1 -5 2 -15
3 -22 2 -18 26 -22 26 -4 0 10 6 13 15 9 18 -6 16 -37 -3 -39 -25 -3 -27 -5
-12 -14 13 -8 13 -10 -2 -10 -21 0 -48 37 -48 67 0 22 19 33 21 13z m-401 -30
c0 -5 -7 -7 -15 -4 -8 4 -12 10 -9 15 6 11 24 2 24 -11z m38 -5 c-1 -14 -8
-25 -14 -25 -6 0 -10 10 -9 23 3 27 3 27 15 27 5 0 9 -11 8 -25z m-172 -29 c1
-23 -19 -46 -39 -46 -14 0 -13 44 1 61 22 25 37 19 38 -15z m54 -16 c0 -5 -5
-10 -11 -10 -5 0 -7 5 -4 10 3 6 8 10 11 10 2 0 4 -4 4 -10z m613 -25 c-3 -9
-8 -14 -10 -11 -3 3 -2 9 2 15 9 16 15 13 8 -4z m-30 -10 c-3 -9 3 -26 13 -38
12 -15 9 -13 -10 4 -16 15 -25 32 -22 38 11 17 26 13 19 -4z m-677 -30 c1 -8
-1 -15 -6 -15 -10 0 -20 26 -13 34 8 8 16 -1 19 -19z m621 -32 c-3 -3 -14 0
-24 6 -17 10 -17 10 0 11 9 0 18 6 18 13 1 6 3 4 6 -6 3 -10 2 -21 0 -24z
m-610 -55 c5 -7 10 -24 10 -38 1 -14 -1 -19 -4 -12 -4 10 -8 10 -21 0 -15 -11
-15 -11 -4 4 9 11 10 18 2 23 -12 8 -14 35 -1 35 5 0 13 -6 18 -12z m653 -2
c0 -3 -4 -8 -10 -11 -5 -3 -10 -1 -10 4 0 6 5 11 10 11 6 0 10 -2 10 -4z m-34
-23 c18 -23 17 -43 0 -43 -14 0 -26 21 -26 46 0 19 10 18 26 -3z m-596 -88
c10 -12 10 -15 -4 -15 -9 0 -16 -5 -16 -11 0 -5 -5 -7 -10 -4 -8 5 -8 11 -1
19 6 7 8 16 4 19 -3 4 -2 7 4 7 6 0 16 -7 23 -15z m630 -16 c0 -5 -7 -9 -15
-9 -15 0 -20 12 -9 23 8 8 24 -1 24 -14z m-696 -25 c7 -18 0 -34 -16 -34 -5 0
-7 7 -4 16 5 12 2 15 -10 10 -14 -5 -15 -4 -4 9 16 19 26 19 34 -1z m685 -39
c2 -13 -1 -16 -13 -12 -10 4 -16 1 -16 -9 0 -11 -6 -13 -22 -9 -17 6 -20 4
-15 -9 4 -10 1 -16 -9 -16 -13 0 -13 4 1 30 9 17 22 30 30 30 8 0 15 5 15 11
0 17 25 4 29 -16z m-587 -49 c9 -14 10 -32 1 -23 -3 4 -11 -1 -18 -10 -11 -14
-14 -12 -28 17 -10 18 -17 35 -17 37 0 8 55 -11 62 -21z m-77 -6 c3 -5 -1 -10
-9 -10 -9 0 -16 5 -16 10 0 6 4 10 9 10 6 0 13 -4 16 -10z m479 -16 c3 -8 1
-14 -4 -14 -6 0 -10 5 -10 12 0 6 -6 3 -14 -8 -14 -18 -15 -18 -22 0 -4 11 -2
21 6 26 16 10 37 3 44 -16z m176 11 c0 -8 -7 -15 -15 -15 -8 0 -15 7 -15 15 0
8 7 15 15 15 8 0 15 -7 15 -15z m-403 -18 c-3 -8 -1 -20 3 -28 10 -15 -7 -42
-22 -33 -5 4 -5 10 1 18 6 7 6 17 0 26 -8 13 -10 13 -19 0 -7 -12 -12 -12 -21
-3 -13 13 -8 16 36 26 11 3 22 5 24 6 2 0 1 -5 -2 -12z m41 2 c-2 -6 -8 -10
-13 -10 -5 0 -11 4 -13 10 -2 6 4 11 13 11 9 0 15 -5 13 -11z m-118 -55 c0
-24 -33 -12 -35 13 -1 18 1 20 17 12 10 -5 18 -17 18 -25z m321 21 c1 -17 -18
-17 -25 0 -4 11 -1 15 10 13 8 -2 15 -7 15 -13z m-381 1 c0 -11 -19 -15 -25
-6 -3 5 1 10 9 10 9 0 16 -2 16 -4z m475 -5 c3 -5 1 -12 -4 -15 -5 -4 -11 -1
-13 5 -2 5 -11 7 -20 4 -9 -4 -14 -13 -11 -21 3 -8 1 -14 -5 -14 -7 0 -10 35
-3 48 3 6 51 1 56 -7z m-175 -16 c0 -8 -5 -17 -12 -21 -7 -5 -8 -3 -3 6 5 9 2
10 -14 5 -19 -6 -29 4 -16 16 11 11 45 6 45 -6z m-200 -36 c0 -6 -4 -7 -10 -4
-5 3 -10 11 -10 16 0 6 5 7 10 4 6 -3 10 -11 10 -16z m157 -45 c-3 -3 -12 -4
-19 -1 -8 3 -5 6 6 6 11 1 17 -2 13 -5z"/>
</g>
</svg>
